<?xml version="1.0" standalone="no"?>
<svg version="1.0" xmlns="http://www.w3.org/2000/svg"
    width="787.000000pt" height="572.000000pt" viewBox="0 0 787.000000 572.000000"
    preserveAspectRatio="xMidYMid meet">
    <metadata>
        <title>Hero SVG</title>
        <desc>This is an SVG image of representing Binit Shrestha.</desc>
        <creator>Binit Shrestha</creator>
        <origin>https://binitshrestha7.com.np</origin>
    </metadata>

    <style>
        /* CSS Animations */
        @keyframes rotateAnimation {
            0% {
                transform: rotate(0deg);
            }
            100% {
                transform: rotate(360deg);
            }
        }

        @keyframes colorChange {
            0% {
                fill: #000000;
            }
            50% {
                fill: #ff5722;
            }
            100% {
                fill: #000000;
            }
        }

        @keyframes drawPath {
            0% {
                stroke-dashoffset: 1000;
            }
            100% {
                stroke-dashoffset: 0;
            }
        }

        /* Apply the animations */
        svg {
            animation: rotateAnimation 10s linear infinite, colorChange 5s ease-in-out infinite;
        }

        path {
            stroke: #000000;
            stroke-width: 2;
            fill: none;
            stroke-dasharray: 1000;
            animation: drawPath 5s ease forwards;
        }

        /* Optional: Specific animation for certain paths */
        path:nth-child(1) {
            animation-delay: 0.5s;
        }

        path:nth-child(2) {
            animation-delay: 1s;
        }

        path:nth-child(3) {
            animation-delay: 1.5s;
        }

        /* Example for a more complex animation on the second path */
        path:nth-child(4) {
            animation-delay: 2s;
        }
    </style>

    <g transform="translate(0.000000,572.000000) scale(0.100000,-0.100000)"
        fill="#000000" stroke="none">
        <path
            d="M4700 5194 l0 -524 -296 0 c-259 0 -308 3 -396 20 -198 41 -363 127
            -506 264 -181 174 -284 380 -314 630 -10 82 -15 105 -26 101 -8 -3 -22 -5 -33
            -5 -18 0 -19 -16 -21 -502 l-3 -503 -202 -3 c-164 -2 -203 0 -203 11 0 14 -45
            639 -56 768 l-6 77 -101 -43 c-250 -106 -419 -197 -654 -352 l-143 -93 0 -530
            0 -530 -435 0 c-315 0 -441 -3 -460 -12 -57 -26 -55 15 -55 -1013 0 -677 3
            -953 11 -968 30 -58 15 -57 497 -57 l442 0 0 -165 0 -165 90 0 90 0 0 -95 0
            -95 -259 0 c-217 0 -261 -2 -271 -15 -11 -13 -104 -15 -698 -17 l-686 -3 138
            -142 138 -143 1123 0 1122 0 7 -142 c12 -259 28 -433 42 -463 8 -17 32 -52 54
            -79 22 -26 40 -52 40 -57 0 -24 307 -165 486 -222 243 -78 467 -115 744 -124
            471 -14 892 84 1324 308 103 54 110 60 121 97 18 59 26 68 41 48 7 -10 15 -13
            18 -7 8 13 23 221 32 454 l7 177 1072 0 1073 0 137 143 138 142 -267 3 -266 2
            0 28 c0 15 7 90 15 167 8 77 15 142 15 145 0 3 18 5 39 5 44 0 73 21 91 65 10
            23 9 35 -5 63 -29 62 -63 69 -322 74 -221 4 -274 -3 -290 -39 -8 -20 13 -217
            52 -470 l5 -38 -304 0 c-203 0 -307 4 -311 11 -4 5 -6 217 -6 469 2 537 10
            500 -104 500 l-65 0 0 1389 0 1388 -52 35 c-207 136 -468 269 -713 363 l-110
            43 -7 -32 c-4 -17 -18 -200 -33 -406 -14 -206 -28 -394 -31 -418 l-5 -42 -207
            2 -207 3 -5 515 -5 514 -32 7 -33 6 0 -523z m-1590 -909 l0 -305 -180 0 c-137
            0 -180 3 -180 13 0 6 -9 131 -20 277 -11 146 -20 277 -20 293 l0 27 200 0 200
            0 0 -305z m1590 -120 l0 -425 -284 0 -285 0 -3 27 c-5 43 -37 53 -179 53 -113
            0 -129 -2 -153 -21 -14 -11 -26 -29 -26 -40 0 -10 -7 -19 -15 -19 -12 0 -15
            17 -15 93 0 88 -2 95 -26 118 -25 24 -26 24 -280 27 l-254 3 0 304 0 305 760
            0 760 0 0 -425z m455 3 l-30 -423 -177 -3 -178 -2 0 425 0 425 208 0 208 0
            -31 -422z m-1497 -264 c20 -14 22 -23 22 -126 0 -145 -16 -187 -73 -188 -106
            0 -199 -89 -227 -216 -16 -70 -13 -259 5 -345 17 -80 61 -184 101 -236 13 -17
            24 -38 24 -46 0 -30 116 -117 155 -117 12 0 15 -13 15 -64 0 -62 -1 -64 -29
            -69 -22 -5 -42 -25 -83 -81 -52 -75 -56 -78 -325 -251 l-272 -175 -1041 0
            c-1027 0 -1040 0 -1060 20 -20 20 -20 33 -20 943 0 960 -1 946 40 960 8 3 629
            6 1380 6 1221 1 1368 -1 1388 -15z m1442 -461 c0 -47 -70 -1040 -75 -1068 -2
            -11 -18 -25 -34 -32 l-31 -11 -2 -334 -3 -333 -82 120 c-45 66 -109 165 -142
            220 l-61 101 -260 129 c-259 129 -260 130 -276 172 -32 82 -44 87 -227 93
            l-162 5 -3 51 -3 51 100 -5 c116 -5 191 3 191 22 0 8 13 16 29 19 16 3 51 29
            79 56 60 59 76 105 100 231 2 10 6 19 9 22z m-1409 -259 c0 -15 17 -38 37 -52 24
            -24 41 -25 111 -3 61 16 72 20 101 92 48 128 38 281 -27 313 l-41 23 0 54 0
            54 -16 18 c-9 10 -48 23 -86 28 -37 5 -77 2 -111 -5z m1411 6 c38 -19 66 -55
            77 -107 8 -25 6 -35 -5 -44 -7 -7 -13 -5 -13 5 0 10 3 27 7 39 8 24 10 27
            16 20 6 -7 10 -14 19 -6z m113 -93 l4 -49 22 16 23 16 27 -6 30 -30 7 18
            c3 9 4 5 3 -10 -1 -13 4 -22 11 -23 12 -3 13 16 19 25 3 5 3 16 2
            34 -1 21 -5 31 -12 28z m110 -102 l27 -25 c6 0 1 -11 -7 -14 -9 -3 -1 -10
            16 -16 24 -10 5 -17 11 -22 17 -5 5 -2 17 6 17z"/>
    </g>
</svg>
