<?xml version="1.0" standalone="no"?>
<!DOCTYPE svg PUBLIC "-//W3C//DTD SVG 20010904//EN"
 "http://www.w3.org/TR/2001/REC-SVG-20010904/DTD/svg10.dtd">
<svg version="1.0" xmlns="http://www.w3.org/2000/svg"
 width="787.000000pt" height="572.000000pt" viewBox="0 0 787.000000 572.000000"
 preserveAspectRatio="xMidYMid meet">

<g transform="translate(0.000000,572.000000) scale(0.100000,-0.100000)"
fill="#000000" stroke="none">
<path d="M4700 5194 l0 -524 -296 0 c-259 0 -308 3 -396 20 -198 41 -363 127
-506 264 -181 174 -284 380 -314 630 -10 82 -15 105 -26 101 -8 -3 -22 -5 -33
-5 -18 0 -19 -16 -21 -502 l-3 -503 -202 -3 c-164 -2 -203 0 -203 11 0 14 -45
639 -56 768 l-6 77 -101 -43 c-250 -106 -419 -197 -654 -352 l-143 -93 0 -530
0 -530 -435 0 c-315 0 -441 -3 -460 -12 -57 -26 -55 15 -55 -1013 0 -677 3
-953 11 -968 30 -58 15 -57 497 -57 l442 0 0 -165 0 -165 90 0 90 0 0 -95 0
-95 -259 0 c-217 0 -261 -2 -271 -15 -11 -13 -104 -15 -698 -17 l-686 -3 138
-142 138 -143 1123 0 1122 0 7 -142 c12 -259 28 -433 42 -463 8 -17 32 -52 54
-79 22 -26 40 -52 40 -57 0 -24 307 -165 486 -222 243 -78 467 -115 744 -124
471 -14 892 84 1324 308 103 54 110 60 121 97 18 59 26 68 41 48 7 -10 15 -13
18 -7 8 13 23 221 32 454 l7 177 1072 0 1073 0 137 143 138 142 -267 3 -266 2
0 28 c0 15 7 90 15 167 8 77 15 142 15 145 0 3 18 5 39 5 44 0 73 21 91 65 10
23 9 35 -5 63 -29 62 -63 69 -322 74 -221 4 -274 -3 -290 -39 -8 -20 13 -217
52 -470 l5 -38 -304 0 c-203 0 -307 4 -311 11 -4 5 -6 217 -6 469 2 537 10
500 -104 500 l-65 0 0 1389 0 1388 -52 35 c-207 136 -468 269 -713 363 l-110
43 -7 -32 c-4 -17 -18 -200 -33 -406 -14 -206 -28 -394 -31 -418 l-5 -42 -207
2 -207 3 -5 515 -5 514 -32 7 -33 6 0 -523z m-1590 -909 l0 -305 -180 0 c-137
0 -180 3 -180 13 0 6 -9 131 -20 277 -11 146 -20 277 -20 293 l0 27 200 0 200
0 0 -305z m1590 -120 l0 -425 -284 0 -285 0 -3 27 c-5 43 -37 53 -179 53 -113
0 -129 -2 -153 -21 -14 -11 -26 -29 -26 -40 0 -10 -7 -19 -15 -19 -12 0 -15
17 -15 93 0 88 -2 95 -26 118 -25 24 -26 24 -280 27 l-254 3 0 304 0 305 760
0 760 0 0 -425z m455 3 l-30 -423 -177 -3 -178 -2 0 425 0 425 208 0 208 0
-31 -422z m-1497 -264 c20 -14 22 -23 22 -126 0 -145 -16 -187 -73 -188 -106
0 -199 -89 -227 -216 -16 -70 -13 -259 5 -345 17 -80 61 -184 101 -236 13 -17
24 -38 24 -46 0 -30 116 -117 155 -117 12 0 15 -13 15 -64 0 -62 -1 -64 -29
-69 -22 -5 -42 -25 -83 -81 -52 -75 -56 -78 -325 -251 l-272 -175 -1041 0
c-1027 0 -1040 0 -1060 20 -20 20 -20 33 -20 943 0 960 -1 946 40 960 8 3 629
6 1380 6 1221 1 1368 -1 1388 -15z m1442 -461 c0 -47 -70 -1040 -75 -1068 -2
-11 -18 -25 -34 -32 l-31 -11 -2 -334 -3 -333 -82 120 c-45 66 -109 165 -142
220 l-61 101 -260 129 c-259 129 -260 130 -276 172 -32 82 -44 87 -227 93
l-162 5 -3 51 -3 51 100 -5 c116 -5 191 3 191 22 0 8 13 16 29 19 16 3 51 29
79 56 60 59 76 105 63 175 -9 49 -8 51 34 58 27 4 30 38 11 95 -31 91 -12 130
74 153 46 12 83 41 121 93 32 44 38 84 13 94 -8 3 -13 12 -10 19 10 25 -5 44
-35 44 -24 0 -29 4 -29 25 l0 25 360 0 360 0 0 -37z m118 -1325 c3 -14 -3 -18
-26 -18 -28 0 -48 20 -34 34 13 13 57 1 60 -16z m237 2 c0 -12 -19 -16 -99
-18 -97 -3 -126 4 -111 27 4 8 41 11 108 9 83 -2 102 -6 102 -18z m90 0 c0
-18 -43 -26 -57 -12 -16 16 2 33 30 30 16 -2 27 -9 27 -18z m90 0 c0 -18 -43
-26 -57 -12 -16 16 2 33 30 30 16 -2 27 -9 27 -18z m250 0 c0 -12 -18 -16 -94
-18 -106 -3 -123 0 -115 23 9 23 209 18 209 -5z m-580 -70 c0 -18 -43 -26 -57
-12 -16 16 2 33 30 30 16 -2 27 -9 27 -18z m233 3 c-3 -15 -17 -18 -97 -21
-52 -1 -98 1 -104 7 -22 22 8 31 104 31 90 0 100 -2 97 -17z m90 -5 c3 -14 -3
-18 -26 -18 -28 0 -48 20 -34 34 13 13 57 1 60 -16z m90 0 c3 -14 -3 -18 -27
-18 -29 0 -41 17 -24 34 13 13 48 1 51 -16z m257 2 c0 -12 -19 -16 -99 -18
-97 -3 -126 4 -111 27 4 8 41 11 108 9 83 -2 102 -6 102 -18z m-587 -72 c3
-14 -3 -18 -27 -18 -29 0 -41 17 -24 34 13 13 48 1 51 -16z m237 2 c0 -12 -19
-16 -99 -18 -71 -2 -102 1 -107 10 -15 24 4 29 104 26 83 -2 102 -6 102 -18z
m84 11 c19 -12 5 -31 -24 -31 -13 0 -27 5 -31 11 -7 11 12 29 31 29 6 0 16 -4
24 -9z m85 3 c28 -11 18 -34 -14 -34 -18 0 -30 5 -30 13 0 25 15 32 44 21z
m264 -16 c3 -16 -7 -18 -97 -18 -56 0 -103 4 -106 10 -15 24 10 31 103 28 83
-3 97 -6 100 -20z m-594 -54 c28 -11 18 -34 -14 -34 -18 0 -30 5 -30 13 0 25
15 32 44 21z m251 -14 c0 -12 -19 -16 -99 -18 -97 -3 -126 4 -111 27 4 8 41
11 108 9 83 -2 102 -6 102 -18z m84 7 c14 -18 4 -27 -31 -27 -43 0 -35 36 8
39 6 1 17 -5 23 -12z m90 4 c19 -12 5 -31 -24 -31 -13 0 -27 5 -31 11 -7 11
12 29 31 29 6 0 16 -4 24 -9z m1555 -62 c32 -25 34 -64 4 -96 -19 -20 -78 -34
-78 -18 0 21 34 135 40 135 4 0 19 -9 34 -21z m-1966 -21 c3 -14 -3 -18 -26
-18 -28 0 -48 20 -34 34 13 13 57 1 60 -16z m231 9 c18 -23 2 -27 -100 -27
-95 0 -129 11 -98 31 23 15 185 11 198 -4z m96 -7 c0 -18 -43 -26 -57 -12 -16
16 2 33 30 30 16 -2 27 -9 27 -18z m90 0 c0 -18 -43 -26 -57 -12 -16 16 2 33
30 30 16 -2 27 -9 27 -18z m-507 -72 c3 -14 -3 -18 -27 -18 -29 0 -41 17 -24
34 13 13 48 1 51 -16z m321 13 c19 -12 5 -31 -24 -31 -13 0 -27 5 -31 11 -7
11 12 29 31 29 6 0 16 -4 24 -9z m85 3 c28 -11 18 -34 -14 -34 -18 0 -30 5
-30 13 0 25 15 32 44 21z m-164 -19 c0 -20 -32 -26 -125 -23 -67 3 -80 6 -83
21 -3 15 7 17 102 17 87 0 106 -3 106 -15z m-331 -58 c14 -18 4 -27 -31 -27
-43 0 -35 36 8 39 6 1 17 -5 23 -12z m315 7 c28 -11 18 -34 -14 -34 -18 0 -30
5 -30 13 0 25 15 32 44 21z m104 -16 c3 -14 -3 -18 -27 -18 -29 0 -41 17 -24
34 13 13 48 1 51 -16z m-180 -5 c-3 -15 -16 -18 -83 -21 -93 -3 -125 3 -125
23 0 12 19 15 106 15 95 0 105 -2 102 -17z m-334 -49 c28 -11 18 -34 -14 -34
-18 0 -30 5 -30 13 0 25 15 32 44 21z m335 -7 c14 -18 4 -27 -31 -27 -43 0
-35 36 8 39 6 1 17 -5 23 -12z m95 -2 c17 -17 46 -20 46 -5 0 6 42 10 105 10
83 0 105 -3 105 -14 0 -20 -22 -26 -93 -26 -52 -1 -59 -3 -42 -12 73 -43 105
-150 70 -235 -31 -73 -47 -83 -249 -158 l-140 -52 -50 41 c-28 23 -72 52 -99
66 -26 14 -47 28 -47 31 0 3 22 23 48 45 27 21 80 75 118 119 86 100 130 142
156 151 13 4 17 11 13 22 -11 29 33 42 59 17z m-181 -2 c4 -3 2 -12 -4 -20 -8
-9 -38 -13 -98 -13 -87 0 -119 9 -107 29 8 12 198 16 209 4z m1660 -56 c51
-80 51 -81 39 -73 -6 4 -26 31 -43 60 l-32 53 -29 -25 -29 -26 26 -13 c14 -8
25 -16 25 -18 0 -10 -16 -4 -39 14 l-25 19 32 27 c18 15 29 32 25 37 -3 7 -1
8 6 4 6 -4 26 -31 44 -59z m86 14 l23 -18 -33 -22 c-33 -22 -33 -22 -9 -1 l24
22 -24 19 c-14 10 -20 19 -15 19 6 0 21 -9 34 -19z"/>
<path d="M1122 3838 c-17 -17 -15 -64 4 -82 33 -34 94 -7 94 42 0 43 -67 71
-98 40z"/>
<path d="M1326 3834 c-34 -33 -7 -94 42 -94 43 0 71 67 40 98 -17 17 -64 15
-82 -4z"/>
<path d="M1530 3831 c-23 -45 -1 -91 45 -91 48 0 73 60 39 94 -22 23 -71 20
-84 -3z"/>
<path d="M3265 3830 c3 -5 40 -10 81 -10 43 0 74 4 74 10 0 6 -34 10 -81 10
-51 0 -78 -4 -74 -10z"/>
<path d="M3265 3790 c3 -5 40 -10 81 -10 43 0 74 4 74 10 0 6 -34 10 -81 10
-51 0 -78 -4 -74 -10z"/>
<path d="M3265 3750 c-4 -6 23 -10 74 -10 47 0 81 4 81 10 0 6 -31 10 -74 10
-41 0 -78 -4 -81 -10z"/>
<path d="M1623 3673 c357 -2 937 -2 1290 0 353 1 62 2 -648 2 -710 0 -998 -1
-642 -2z"/>
<path d="M2118 3109 c-26 -15 -25 -85 1 -99 12 -6 104 -10 231 -10 127 0 219
4 231 10 25 14 26 71 1 93 -16 15 -47 17 -233 17 -127 0 -221 -5 -231 -11z"/>
</g>
</svg>
