<svg
  version="1.0"
  xmlns="http://www.w3.org/2000/svg"
  xmlns:xlink="http://www.w3.org/1999/xlink"
  width="2500"
  height="2500"
  viewBox="60 15 200 200"
>
  <defs>
    <linearGradient id="new-gradient" x1="0%" y1="0%" x2="0%" y2="100%">
      <stop offset="0%" stop-color="rgba(999,999,999,1)" />
      <!-- <stop offset="26%" stop-color="rgba(63,63,241,1)" /> -->
      <stop offset="100%" stop-color="rgba(999,999,999,1)" />
    </linearGradient>
  </defs>
  <g transform="scale(3.7) translate(25,5)"> <!-- Increased zoom -->
    <g class="imagesvg isNoFont" transform="translate(0, 0)">
      <svg x="0" y="0" width="60" height="86.56">
        <path d="M0 0c3.74 2.05 7.36 4.26 11.07 6.31.06 4.3 0 8.59 0 12.89C7.43 17 3.56 15.07 0 12.66V0z
          M21.25 12.22c5.09 2.92 10.16 5.9 15.28 8.79v19.41a8.73 8.73 0 0 1-.11 1.77c-6 3.56-12.13 7-18.16 10.53
          -6-3.54-12.13-7-18.15-10.52-.25-5.87 0-11.78-.11-17.65 3.69-.15 7.39-.13 11.08 0v11.21c2.39 1.36 4.78 2.75 7.17 4.13
          2.33-1.43 4.82-2.63 7.07-4.19a52.54 52.54 0 0 0 0-8.13c-3.11-2.05-6.43-3.75-9.63-5.66 1.81-3.29 3.73-6.47 5.56-9.69z" fill="url(#new-gradient)"/>
      </svg>
    </g>
  </g>
</svg>
